<?xml version="1.0" standalone="no"?>
<!DOCTYPE svg PUBLIC "-//W3C//DTD SVG 20010904//EN"
 "http://www.w3.org/TR/2001/REC-SVG-20010904/DTD/svg10.dtd">
<svg version="1.0" xmlns="http://www.w3.org/2000/svg"
 width="1024.000000pt" height="1024.000000pt" viewBox="0 0 1024.000000 1024.000000"
 preserveAspectRatio="xMidYMid meet">
<metadata>
Created by potrace 1.16, written by Peter Selinger 2001-2019
</metadata>
<g transform="translate(0.000000,1024.000000) scale(0.100000,-0.100000)"
fill="#000000" stroke="none">
<path d="M0 5120 l0 -5120 5120 0 5120 0 0 5120 0 5120 -5120 0 -5120 0 0
-5120z m5115 3636 c220 -223 361 -488 421 -791 27 -137 25 -397 -5 -535 -76
-355 -202 -576 -588 -1027 -346 -404 -501 -618 -609 -838 -115 -234 -161 -415
-171 -665 -15 -381 58 -638 305 -1081 187 -337 271 -537 343 -823 16 -65 28
-120 26 -123 -3 -2 -22 24 -43 59 -91 153 -241 348 -489 638 -265 309 -393
487 -490 681 -223 443 -257 966 -95 1459 97 298 241 547 613 1070 492 689 654
1029 698 1460 21 206 -12 474 -78 647 -12 31 56 -24 162 -131z m1030 -1401
c322 -99 728 -253 990 -373 l110 -51 6 -58 c4 -32 14 -155 23 -273 58 -769 60
-1294 5 -1785 -76 -688 -277 -1147 -722 -1652 -266 -302 -781 -737 -1305
-1103 l-134 -93 -91 63 c-240 165 -646 479 -887 686 -163 139 -451 430 -554
559 -205 257 -393 583 -480 831 -166 470 -223 1119 -175 1994 10 184 53 679
67 775 l7 50 115 51 c187 85 472 197 675 267 213 73 518 161 537 155 7 -3 -69
-49 -168 -103 -356 -195 -834 -474 -872 -509 -38 -34 -43 -51 -58 -205 -63
-667 -70 -1344 -18 -1791 64 -553 252 -982 617 -1408 259 -302 684 -673 1147
-1002 41 -29 89 -64 106 -77 l31 -23 139 101 c666 484 1117 910 1375 1298 126
190 242 442 302 661 115 411 149 990 106 1790 -12 239 -38 599 -44 626 -8 35
-307 226 -805 514 -107 62 -204 120 -215 127 l-20 15 20 -6 c11 -3 88 -26 170
-51z m-215 -549 c35 -158 83 -284 210 -546 66 -135 136 -295 156 -357 21 -62
40 -110 44 -108 4 2 10 60 14 127 4 68 15 170 24 228 l18 105 17 -50 c34 -100
96 -363 120 -510 106 -632 21 -1125 -270 -1565 -88 -133 -185 -256 -387 -493
-88 -104 -193 -230 -234 -280 -169 -211 -304 -451 -376 -667 l-35 -105 -1 142
c-1 310 67 597 214 908 29 61 109 211 178 335 152 272 186 340 243 478 112
276 149 557 110 841 -26 181 -74 333 -193 606 -80 182 -95 246 -95 385 2 221
52 471 155 765 l53 150 7 -145 c4 -87 15 -185 28 -244z"/>
</g>
</svg>
