<?xml version="1.0" encoding="UTF-8" standalone="no"?>
<!DOCTYPE svg PUBLIC "-//W3C//DTD SVG 1.1//EN" "http://www.w3.org/Graphics/SVG/1.1/DTD/svg11.dtd">
<svg width="100%" height="100%" viewBox="0 0 439 696" version="1.1" xmlns="http://www.w3.org/2000/svg" xmlns:xlink="http://www.w3.org/1999/xlink" xml:space="preserve" xmlns:serif="http://www.serif.com/" style="fill-rule:evenodd;clip-rule:evenodd;stroke-linejoin:round;stroke-miterlimit:2;">
    <g transform="matrix(1,0,0,1,-292.241,-131.647)">
        <g transform="matrix(0.1,0,0,-0.1,0,1024)">
            <path d="M4930,8872C4955,8791 4987,8630 5000,8525C5038,8190 4970,7849 4795,7495C4698,7298 4625,7185 4416,6906C4042,6408 3813,6017 3699,5682C3538,5205 3576,4653 3799,4235C3913,4022 4029,3869 4364,3485C4634,3178 4749,3030 4848,2865C4894,2788 4898,2794 4874,2908C4834,3103 4749,3318 4555,3720C4296,4254 4244,4416 4233,4715C4224,4964 4262,5163 4362,5400C4476,5672 4606,5867 4989,6345C5095,6477 5218,6639 5262,6704C5398,6907 5501,7144 5552,7372C5572,7461 5575,7501 5575,7670C5574,7832 5570,7882 5552,7966C5506,8179 5420,8378 5301,8544C5213,8669 5008,8875 4924,8923C4916,8927 4919,8908 4930,8872Z" style="fill-rule:nonzero;"/>
        </g>
        <g transform="matrix(0.1,0,0,-0.1,0,1024)">
            <path d="M4024,7300C3760,7219 3308,7050 3104,6955L3013,6913L3007,6864C2956,6472 2911,5562 2925,5225C2947,4680 3018,4312 3167,3960C3380,3459 3787,2986 4500,2415C4814,2164 5091,1970 5137,1970C5176,1970 5354,2096 5655,2335C6284,2836 6706,3283 6938,3695C7046,3887 7140,4125 7200,4356C7240,4510 7287,4806 7301,4990C7316,5193 7307,5993 7286,6265C7253,6689 7233,6890 7221,6908C7190,6959 6282,7296 6045,7345C6001,7354 6177,7241 6480,7065C6620,6984 6792,6880 6861,6834L6986,6750L6999,6578C7006,6483 7016,6342 7021,6265C7026,6188 7033,5934 7037,5700C7046,5042 7020,4745 6921,4365C6838,4050 6675,3740 6438,3448C6325,3308 6003,2986 5810,2819C5548,2592 5197,2312 5146,2289C5115,2274 5116,2273 4895,2445C3809,3288 3397,3827 3259,4585C3176,5045 3171,5728 3246,6662L3253,6750L3389,6838C3464,6887 3626,6987 3750,7060C4076,7252 4228,7350 4199,7350C4191,7349 4113,7327 4024,7300Z" style="fill-rule:nonzero;"/>
        </g>
        <g transform="matrix(0.1,0,0,-0.1,0,1024)">
            <path d="M5858,6946C5723,6639 5681,6494 5673,6309C5666,6153 5686,6021 5740,5865C5761,5805 5808,5670 5844,5565C5925,5331 5949,5223 5957,5054C5966,4851 5943,4699 5868,4472C5829,4353 5798,4289 5568,3840C5419,3549 5318,3285 5268,3052C5246,2948 5238,2758 5253,2685L5262,2645L5290,2723C5326,2820 5403,2973 5465,3071C5535,3180 5602,3265 5845,3555C5965,3698 6104,3870 6154,3937C6366,4222 6484,4476 6537,4765C6558,4879 6561,5252 6542,5385C6516,5568 6385,6161 6381,6114C6379,6086 6329,5742 6324,5720C6320,5701 6294,5758 6221,5955C6167,6098 6088,6301 6046,6405C5940,6663 5929,6709 5921,6911L5915,7076L5858,6946Z" style="fill-rule:nonzero;"/>
        </g>
    </g>
</svg>
