<?xml version="1.0" encoding="UTF-8" standalone="no"?>
<!DOCTYPE svg PUBLIC "-//W3C//DTD SVG 1.1//EN" "http://www.w3.org/Graphics/SVG/1.1/DTD/svg11.dtd">
<svg width="100%" height="100%" viewBox="0 0 1024 1024" version="1.1" xmlns="http://www.w3.org/2000/svg" xmlns:xlink="http://www.w3.org/1999/xlink" xml:space="preserve" xmlns:serif="http://www.serif.com/" style="fill-rule:evenodd;clip-rule:evenodd;stroke-linejoin:round;stroke-miterlimit:2;">
    <g transform="matrix(1.25138,0,0,1.30172,-119.682,-148.234)">
        <rect x="95.64" y="113.875" width="818.296" height="786.649" style="fill:rgb(235,235,235);"/>
    </g>
    <g transform="matrix(0.1,0,0,-0.1,4.26326e-14,1024)">
        <path d="M0,10240L0,0L10240,0L10240,10240L0,10240ZM5115,8756C5335,8533 5476,8268 5536,7965C5563,7828 5561,7568 5531,7430C5455,7075 5329,6854 4943,6403C4597,5999 4442,5785 4334,5565C4219,5331 4173,5150 4163,4900C4148,4519 4221,4262 4468,3819C4655,3482 4739,3282 4811,2996C4827,2931 4839,2876 4837,2873C4834,2871 4815,2897 4794,2932C4703,3085 4553,3280 4305,3570C4040,3879 3912,4057 3815,4251C3592,4694 3558,5217 3720,5710C3817,6008 3961,6257 4333,6780C4825,7469 4987,7809 5031,8240C5052,8446 5019,8714 4953,8887C4941,8918 5009,8863 5115,8756ZM6145,7355C6467,7256 6873,7102 7135,6982L7245,6931L7251,6873C7255,6841 7265,6718 7274,6600C7332,5831 7334,5306 7279,4815C7203,4127 7002,3668 6557,3163C6291,2861 5776,2426 5252,2060L5118,1967L5027,2030C4787,2195 4381,2509 4140,2716C3977,2855 3689,3146 3586,3275C3381,3532 3193,3858 3106,4106C2940,4576 2883,5225 2931,6100C2941,6284 2984,6779 2998,6875L3005,6925L3120,6976C3307,7061 3592,7173 3795,7243C4008,7316 4313,7404 4332,7398C4339,7395 4263,7349 4164,7295C3808,7100 3330,6821 3292,6786C3254,6752 3249,6735 3234,6581C3171,5914 3164,5237 3216,4790C3280,4237 3468,3808 3833,3382C4092,3080 4517,2709 4980,2380C5021,2351 5069,2316 5086,2303L5117,2280L5256,2381C5922,2865 6373,3291 6631,3679C6757,3869 6873,4121 6933,4340C7048,4751 7082,5330 7039,6130C7027,6369 7001,6729 6995,6756C6987,6791 6688,6982 6190,7270C6083,7332 5986,7390 5975,7397L5955,7412L5975,7406C5986,7403 6063,7380 6145,7355ZM5930,6806C5965,6648 6013,6522 6140,6260C6206,6125 6276,5965 6296,5903C6317,5841 6336,5793 6340,5795C6344,5797 6350,5855 6354,5922C6358,5990 6369,6092 6378,6150L6396,6255L6413,6205C6447,6105 6509,5842 6533,5695C6639,5063 6554,4570 6263,4130C6175,3997 6078,3874 5876,3637C5788,3533 5683,3407 5642,3357C5473,3146 5338,2906 5266,2690L5231,2585L5230,2727C5229,3037 5297,3324 5444,3635C5473,3696 5553,3846 5622,3970C5774,4242 5808,4310 5865,4448C5977,4724 6014,5005 5975,5289C5949,5470 5901,5622 5782,5895C5702,6077 5687,6141 5687,6280C5689,6501 5739,6751 5842,7045L5895,7195L5902,7050C5906,6963 5917,6865 5930,6806Z" style="fill-rule:nonzero;"/>
    </g>
</svg>
